Results
version=1
nRows=26
nColumns=24
inDegrees=yes
endheader
time	pelvis_tilt	pelvis_list	pelvis_rotation	pelvis_tx	pelvis_ty	pelvis_tz	hip_flexion_r	hip_adduction_r	hip_rotation_r	knee_angle_r	ankle_angle_r	subtalar_angle_r	mtp_angle_r	hip_flexion_l	hip_adduction_l	hip_rotation_l	knee_angle_l	ankle_angle_l	subtalar_angle_l	mtp_angle_l	lumbar_extension	lumbar_bending	lumbar_rotation
      0.69983333	     -5.64345985	      1.16133730	      0.90338160	     -0.41608925	      1.00575040	      0.28452851	     15.27273913	      2.37879654	      2.37310690	    -24.10958168	     12.57149439	     -6.66370876	      2.82790842	     17.85979489	     -0.29265719	     -2.34383525	    -64.87861112	     -9.64218429	      0.70213410	      9.50339451	     -8.54194066	      4.56149661	      0.12841707
      0.70400000	     -5.60347101	      1.27120212	      0.85973763	     -0.41124335	      1.00673245	      0.28464548	     14.76823462	      2.28347977	      2.43436105	    -23.76011677	     12.47200352	     -6.77072414	      2.80819992	     18.22115065	     -0.20495936	     -2.36474170	    -64.63364871	     -8.90323861	      0.26947241	      9.44659068	     -8.65473386	      4.30753660	      0.61538313
      0.70816667	     -5.62070244	      1.38027841	      0.81965783	     -0.40640170	      1.00759863	      0.28471274	     14.34567738	      2.17543778	      2.44880635	    -23.45402340	     12.39847296	     -6.77477863	      2.80155639	     18.63992984	     -0.11379779	     -2.39073462	    -64.34677930	     -8.10601097	     -0.13355169	      9.43530225	     -8.65380691	      4.14554218	      0.73986847
      0.71233333	     -5.57336594	      1.48140020	      0.75850993	     -0.40153633	      1.00859980	      0.28484554	     13.82372265	      2.09032156	      2.52801686	    -23.07835662	     12.26818264	     -6.88615953	      2.78838652	     18.96581769	     -0.04282794	     -2.43605095	    -63.97669530	     -7.33407160	     -0.51739739	      9.36925892	     -8.76202623	      3.90579430	      1.20981027
      0.71650000	     -5.56643196	      1.61414535	      0.69281332	     -0.39667474	      1.00953771	      0.28493039	     13.36733990	      1.96027392	      2.58152996	    -22.74996534	     12.15882245	     -6.91707976	      2.78143444	     19.31977825	      0.07056536	     -2.48993605	    -63.54000736	     -6.55867902	     -0.91010349	      9.29346584	     -8.80386350	      3.67625924	      1.50871598
      0.72066667	     -5.55063306	      1.72214671	      0.62514325	     -0.39181029	      1.01049103	      0.28501506	     12.89222672	      1.85620693	      2.64203416	    -22.39753854	     12.02026729	     -6.95689391	      2.77780955	     19.65438527	      0.15365022	     -2.54629598	    -63.05132229	     -5.77818281	     -1.27276077	      9.20740640	     -8.86224937	      3.47518841	      1.81026682
      0.72483333	     -5.52403758	      1.83627297	      0.55015359	     -0.38694242	      1.01145438	      0.28508718	     12.40958576	      1.74177937	      2.69827413	    -22.05049448	     11.87546279	     -6.98200518	      2.77871165	     19.96114171	      0.24523748	     -2.60830421	    -62.49727350	     -5.01143789	     -1.63394224	      9.11099657	     -8.92629517	      3.27510976	      2.09479182
      0.72900000	     -5.54418563	      1.95369388	      0.47663931	     -0.38209137	      1.01231074	      0.28513004	     12.00066517	      1.61538514	      2.72561568	    -21.75171868	     11.73344629	     -6.94955107	      2.77910663	     20.31213748	      0.34293045	     -2.67494577	    -61.90011112	     -4.23893841	     -2.00009332	      9.07236898	     -8.92798244	      3.09759598	      2.22535457
      0.73316667	     -5.46078363	      2.07758526	      0.38833249	     -0.37718114	      1.01337509	      0.28519790	     11.44261216	      1.48805407	      2.80306044	    -21.37200460	     11.57222420	     -6.98942533	      2.78828650	     20.51549927	      0.44530490	     -2.74733831	    -61.20129538	     -3.54576469	     -2.33531592	      8.94410781	     -9.06125971	      2.85948600	      2.64032981
      0.73733333	     -5.42785346	      2.20215241	      0.30180070	     -0.37229202	      1.01432169	      0.28522642	     10.96254805	      1.35168492	      2.85731936	    -21.03974695	     11.40790974	     -6.97983109	      2.80396328	     20.76725178	      0.55427348	     -2.81781600	    -60.46211543	     -2.84644747	     -2.67038638	      8.79498311	     -9.12995947	      2.64858282	      2.93647201
      0.74150000	     -5.39319531	      2.28166408	      0.20093544	     -0.36739612	      1.01524185	      0.28527765	     10.47721419	      1.26633372	      2.93046778	    -20.69538769	     11.22684644	     -6.97235583	      2.85295345	     21.00868605	      0.60298488	     -2.90324587	    -59.68882994	     -2.15048946	     -2.99357483	      8.44423642	     -9.19551161	      2.49265115	      3.28127959
      0.74566667	     -5.37132169	      2.42540037	      0.13357899	     -0.36249836	      1.01616146	      0.28522773	     10.01707633	      1.09495938	      2.94832969	    -20.37873345	     11.04043346	     -6.95285251	      2.87223679	     21.23906763	      0.75664766	     -2.93529290	    -58.82042173	     -1.54355528	     -3.31032558	      8.30451067	     -9.24614105	      2.28000445	      3.44477534
      0.74983333	     -5.31857963	      2.53080717	      0.05050165	     -0.35758741	      1.01708686	      0.28521411	      9.51608226	      0.96851210	      2.99019107	    -20.04303051	     10.86719668	     -6.90816229	      2.89946754	     21.42538445	      0.85483975	     -2.98917954	    -57.91647615	     -0.95245805	     -3.62948175	      8.13487506	     -9.33389448	      2.08906984	      3.70198851
      0.75400000	     -5.31019214	      2.65688666	     -0.05884247	     -0.35270223	      1.01790692	      0.28520390	      9.09232238	      0.82369965	      3.07256811	    -19.76578202	     10.70843590	     -6.93394321	      3.34924759	     21.64550647	      0.97241508	     -3.06517890	    -56.97009175	     -0.30417785	     -3.88383117	      5.89029147	     -9.36922661	      1.86398748	      4.10721629
      0.75816667	     -5.23086875	      2.73774063	     -0.11459870	     -0.34776229	      1.01884335	      0.28509472	      8.55358248	      0.70682208	      3.05784779	    -19.40778265	     10.47949534	     -6.82234284	      3.36535284	     21.77074088	      1.07098984	     -3.06280568	    -55.95280024	      0.16336832	     -4.22057566	      5.83155830	     -9.48031834	      1.75158610	      4.18861614
      0.76233333	     -5.17804456	      2.85958447	     -0.19610834	     -0.34283156	      1.01971101	      0.28500345	      8.06903286	      0.54997016	      3.08198864	    -19.10346446	     10.29416560	     -6.76134236	      3.38786142	     21.90253893	      1.20899846	     -3.08889933	    -54.87391374	      0.61609196	     -4.53741982	      5.75224653	     -9.55903533	      1.56650094	      4.39671766
      0.76650000	     -5.12349852	      2.93883574	     -0.26885383	     -0.33789250	      1.02053358	      0.28489606	      7.57704582	      0.43794745	      3.10721493	    -18.78853709	     10.09208720	     -6.71070728	      3.41517079	     22.02416310	      1.30460332	     -3.09470100	    -53.76559920	      1.04651265	     -4.83740710	      5.65516064	     -9.64047577	      1.42828309	      4.61861043
      0.77066667	     -5.07142650	      3.03840776	     -0.34883849	     -0.33295136	      1.02133924	      0.28477168	      7.09731485	      0.30162221	      3.13350071	    -18.49049878	      9.89549502	     -6.65468020	      3.44776366	     22.12498616	      1.42901949	     -3.09660531	    -52.59164490	      1.41970103	     -5.14508422	      5.54083582	     -9.72006517	      1.27142867	      4.83604674
      0.77483333	     -5.04757633	      3.12401284	     -0.42563850	     -0.32802216	      1.02205927	      0.28463020	      6.66410427	      0.17832997	      3.15225998	    -18.22416871	      9.66097624	     -6.59849467	      3.47342884	     22.24414322	      1.54416273	     -3.07911737	    -51.37912778	      1.77883106	     -5.42643171	      5.44663282	     -9.75678005	      1.14508847	      5.00957801
      0.77900000	     -4.95125087	      3.21295364	     -0.49630305	     -0.32303806	      1.02287221	      0.28447357	      6.12571094	      0.04877321	      3.17386217	    -17.90606937	      9.48547438	     -6.55343544	      3.51320108	     22.25919092	      1.66771597	     -3.05887522	    -50.10262066	      2.04803978	     -5.75194796	      5.31032667	     -9.88687586	      0.99198878	      5.23394718
      0.78316667	     -4.95419220	      3.28906625	     -0.57033039	     -0.31810446	      1.02346703	      0.28429723	      5.72764495	     -0.06785502	      3.19494388	    -17.64877480	      9.24489840	     -6.48623929	      3.54037926	     22.37900920	      1.77905898	     -3.02815148	    -48.81173911	      2.35689260	     -6.01047621	      5.21418772	     -9.91840208	      0.88634082	      5.38194872
      0.78733333	     -4.83676866	      3.35983302	     -0.63904976	     -0.31310752	      1.02422354	      0.28412646	      5.17929138	     -0.17797886	      3.22146531	    -17.36186882	      9.08942966	     -6.45872484	      3.59448391	     22.33232779	      1.89619029	     -2.96737102	    -47.43488694	      2.52663221	     -6.35427190	      5.03959516	    -10.04496627	      0.74954650	      5.61957542
      0.79150000	     -4.79372074	      3.42419205	     -0.70974736	     -0.30812937	      1.02483480	      0.28393499	      4.72350342	     -0.28250917	      3.25432985	    -17.09193603	      8.88416650	     -6.42336144	      3.65837432	     22.35590030	      2.00623364	     -2.90351742	    -46.03144020	      2.70984211	     -6.65452317	      4.84206755	    -10.11854618	      0.64490199	      5.81353391
      0.79566667	     -4.72882974	      3.47650206	     -0.77557195	     -0.30313304	      1.02543148	      0.28374020	      4.24625796	     -0.37442008	      3.28134410	    -16.83090297	      8.68199266	     -6.39662982	      3.72229437	     22.33762525	      2.10633128	     -2.82573598	    -44.58415567	      2.86052716	     -6.93944696	      4.64861361	    -10.19693586	      0.54854970	      5.98048028
      0.79983333	     -4.69514243	      3.54364787	     -0.84518003	     -0.29812764	      1.02594705	      0.28352109	      3.81623241	     -0.48557674	      3.29704096	    -16.59374143	      8.44946090	     -6.37160763	      3.77357402	     22.33230029	      2.22244695	     -2.75470935	    -43.08989979	      2.97982606	     -7.20831088	      4.49266728	    -10.25762692	      0.45220284	      6.12293195
      0.80400000	     -4.61159232	      3.57085947	     -0.90683163	     -0.29312340	      1.02647519	      0.28331672	      3.32497692	     -0.54901363	      3.33731005	    -16.34919700	      8.29001446	     -6.35597206	      3.85232900	     22.25630663	      2.30506952	     -2.63448026	    -41.55887131	      3.04621033	     -7.52035529	      4.27313190	    -10.35355614	      0.37948798	      6.30492771
